<mxfile host="app.diagrams.net" modified="2022-06-29T13:05:57.680Z" agent="5.0 (Windows NT 10.0; Win64; x64) AppleWebKit/537.36 (KHTML, like Gecko) Chrome/102.0.0.0 Safari/537.36" etag="0uyAdIxaVDihYLQgGh1N" version="20.0.3" type="github">
  <diagram id="v8hTpokYwNXpzIlPlH0_" name="Page-1">
    <mxGraphModel dx="1422" dy="761" grid="0" gridSize="10" guides="1" tooltips="1" connect="1" arrows="1" fold="1" page="1" pageScale="1" pageWidth="827" pageHeight="1169" math="0" shadow="0">
      <root>
        <mxCell id="0" />
        <mxCell id="1" parent="0" />
        <mxCell id="amvjW9r1WKbjVWtIjcH6-35" value="" style="rounded=1;whiteSpace=wrap;html=1;fontSize=20;arcSize=5;dashed=1;strokeWidth=2;strokeColor=#FF8000;" vertex="1" parent="1">
          <mxGeometry x="72" y="719" width="258" height="226" as="geometry" />
        </mxCell>
        <mxCell id="amvjW9r1WKbjVWtIjcH6-29" value="" style="rounded=1;whiteSpace=wrap;html=1;fontSize=20;arcSize=5;dashed=1;strokeWidth=2;strokeColor=#FF8000;" vertex="1" parent="1">
          <mxGeometry x="106" y="409" width="310" height="269" as="geometry" />
        </mxCell>
        <mxCell id="amvjW9r1WKbjVWtIjcH6-7" value="" style="rounded=1;whiteSpace=wrap;html=1;fontSize=20;arcSize=7;dashed=1;strokeWidth=2;strokeColor=#0000FF;" vertex="1" parent="1">
          <mxGeometry x="333" y="232" width="462" height="156" as="geometry" />
        </mxCell>
        <mxCell id="amvjW9r1WKbjVWtIjcH6-6" value="" style="rounded=1;whiteSpace=wrap;html=1;fontSize=20;arcSize=5;dashed=1;strokeWidth=2;strokeColor=#FF8000;" vertex="1" parent="1">
          <mxGeometry x="26" y="241" width="478" height="138" as="geometry" />
        </mxCell>
        <mxCell id="amvjW9r1WKbjVWtIjcH6-1" value="I/O处理单元" style="rounded=0;whiteSpace=wrap;html=1;fontStyle=1;fontSize=22;strokeColor=none;fillColor=none;flipH=1;" vertex="1" parent="1">
          <mxGeometry x="32" y="281.5" width="145" height="57" as="geometry" />
        </mxCell>
        <mxCell id="amvjW9r1WKbjVWtIjcH6-2" value="逻辑处理单元" style="rounded=0;whiteSpace=wrap;html=1;fontStyle=1;fontSize=22;strokeColor=none;fillColor=none;flipH=1;" vertex="1" parent="1">
          <mxGeometry x="347" y="281.5" width="145" height="57" as="geometry" />
        </mxCell>
        <mxCell id="amvjW9r1WKbjVWtIjcH6-3" value="网络存储单元" style="rounded=0;whiteSpace=wrap;html=1;fontStyle=1;fontSize=22;strokeColor=none;fillColor=none;flipH=1;" vertex="1" parent="1">
          <mxGeometry x="630" y="280.5" width="145" height="57" as="geometry" />
        </mxCell>
        <mxCell id="amvjW9r1WKbjVWtIjcH6-4" value="&lt;font style=&quot;font-size: 20px;&quot;&gt;请求队列&lt;/font&gt;" style="rounded=0;whiteSpace=wrap;html=1;fontSize=22;" vertex="1" parent="1">
          <mxGeometry x="245" y="251" width="32" height="116" as="geometry" />
        </mxCell>
        <mxCell id="amvjW9r1WKbjVWtIjcH6-5" value="&lt;font style=&quot;font-size: 20px;&quot;&gt;请求队列&lt;/font&gt;" style="rounded=0;whiteSpace=wrap;html=1;fontSize=22;" vertex="1" parent="1">
          <mxGeometry x="562" y="251" width="32" height="116" as="geometry" />
        </mxCell>
        <mxCell id="amvjW9r1WKbjVWtIjcH6-8" value="" style="endArrow=none;html=1;rounded=0;fontSize=20;dashed=1;strokeWidth=2;strokeColor=#3333FF;" edge="1" parent="1">
          <mxGeometry width="50" height="50" relative="1" as="geometry">
            <mxPoint x="333" y="378" as="sourcePoint" />
            <mxPoint x="333" y="241" as="targetPoint" />
          </mxGeometry>
        </mxCell>
        <mxCell id="amvjW9r1WKbjVWtIjcH6-9" value="半同步/半反应堆线程池" style="rounded=0;whiteSpace=wrap;html=1;dashed=1;fontSize=20;strokeColor=none;strokeWidth=2;fillColor=none;fontColor=#FF8000;" vertex="1" parent="1">
          <mxGeometry x="114" y="205" width="230" height="33" as="geometry" />
        </mxCell>
        <mxCell id="amvjW9r1WKbjVWtIjcH6-11" value="日志系统和数据库连接池" style="rounded=0;whiteSpace=wrap;html=1;dashed=1;fontSize=20;strokeColor=none;strokeWidth=2;fillColor=none;fontColor=#0000FF;" vertex="1" parent="1">
          <mxGeometry x="427" y="199" width="251" height="33" as="geometry" />
        </mxCell>
        <mxCell id="amvjW9r1WKbjVWtIjcH6-12" value="" style="endArrow=classic;html=1;rounded=0;dashed=1;fontSize=20;fontColor=#CC0000;strokeColor=#CC0000;strokeWidth=2;exitX=0.25;exitY=0;exitDx=0;exitDy=0;entryX=1;entryY=1;entryDx=0;entryDy=0;" edge="1" parent="1" source="amvjW9r1WKbjVWtIjcH6-9" target="amvjW9r1WKbjVWtIjcH6-13">
          <mxGeometry width="50" height="50" relative="1" as="geometry">
            <mxPoint x="240" y="175" as="sourcePoint" />
            <mxPoint x="205" y="95" as="targetPoint" />
          </mxGeometry>
        </mxCell>
        <mxCell id="amvjW9r1WKbjVWtIjcH6-13" value="两种高效的并发模式" style="rounded=1;whiteSpace=wrap;html=1;dashed=1;fontSize=20;fontColor=#CC0000;strokeColor=#CC0000;strokeWidth=2;fillColor=none;comic=1;fontStyle=1" vertex="1" parent="1">
          <mxGeometry x="34" y="110" width="120" height="60" as="geometry" />
        </mxCell>
        <mxCell id="amvjW9r1WKbjVWtIjcH6-14" value="" style="shape=curlyBracket;whiteSpace=wrap;html=1;rounded=1;dashed=1;comic=1;fontSize=20;fontColor=#CC0000;strokeColor=#CC0000;strokeWidth=2;fillColor=none;" vertex="1" parent="1">
          <mxGeometry x="162" y="110" width="27" height="60" as="geometry" />
        </mxCell>
        <mxCell id="amvjW9r1WKbjVWtIjcH6-15" value="半同步/半异步模式" style="rounded=0;whiteSpace=wrap;html=1;dashed=1;comic=1;fontSize=20;fontColor=#CC0000;strokeColor=none;strokeWidth=2;fillColor=none;" vertex="1" parent="1">
          <mxGeometry x="184" y="91" width="194" height="40" as="geometry" />
        </mxCell>
        <mxCell id="amvjW9r1WKbjVWtIjcH6-16" value="领导者/追随者模式" style="rounded=0;whiteSpace=wrap;html=1;dashed=1;comic=1;fontSize=20;fontColor=#CC0000;strokeColor=none;strokeWidth=2;fillColor=none;" vertex="1" parent="1">
          <mxGeometry x="184" y="148" width="194" height="40" as="geometry" />
        </mxCell>
        <mxCell id="amvjW9r1WKbjVWtIjcH6-17" value="" style="shape=flexArrow;endArrow=classic;html=1;rounded=0;dashed=1;fontSize=20;fontColor=#FF9933;strokeColor=none;strokeWidth=2;fillColor=#FF9933;" edge="1" parent="1">
          <mxGeometry width="50" height="50" relative="1" as="geometry">
            <mxPoint x="262.5" y="378" as="sourcePoint" />
            <mxPoint x="263" y="412" as="targetPoint" />
          </mxGeometry>
        </mxCell>
        <mxCell id="amvjW9r1WKbjVWtIjcH6-18" value="主线程" style="rounded=0;whiteSpace=wrap;html=1;fontStyle=1;fontSize=22;strokeColor=none;fillColor=none;flipH=1;" vertex="1" parent="1">
          <mxGeometry x="189" y="419" width="143" height="36" as="geometry" />
        </mxCell>
        <mxCell id="amvjW9r1WKbjVWtIjcH6-19" value="工作线程（池）" style="rounded=0;whiteSpace=wrap;html=1;fontStyle=1;fontSize=22;strokeColor=none;fillColor=none;flipH=1;" vertex="1" parent="1">
          <mxGeometry x="172" y="642" width="185" height="36" as="geometry" />
        </mxCell>
        <mxCell id="amvjW9r1WKbjVWtIjcH6-20" value="&lt;font style=&quot;font-size: 20px;&quot;&gt;请求队列(list)&lt;/font&gt;" style="rounded=0;whiteSpace=wrap;html=1;fontSize=22;fontStyle=1" vertex="1" parent="1">
          <mxGeometry x="169" y="525" width="184" height="37" as="geometry" />
        </mxCell>
        <mxCell id="amvjW9r1WKbjVWtIjcH6-21" value="&lt;font style=&quot;font-size: 20px;&quot;&gt;epoll监听socket, 完成read, write&lt;/font&gt;" style="rounded=0;whiteSpace=wrap;html=1;fontSize=22;fillColor=none;strokeColor=none;" vertex="1" parent="1">
          <mxGeometry x="102" y="449" width="318" height="34" as="geometry" />
        </mxCell>
        <mxCell id="amvjW9r1WKbjVWtIjcH6-23" value="" style="endArrow=classic;html=1;rounded=0;dashed=1;fontSize=20;fontColor=#FF9933;strokeColor=#FF9933;strokeWidth=2;fillColor=#FF9933;exitX=0.5;exitY=1;exitDx=0;exitDy=0;" edge="1" parent="1" source="amvjW9r1WKbjVWtIjcH6-21" target="amvjW9r1WKbjVWtIjcH6-20">
          <mxGeometry width="50" height="50" relative="1" as="geometry">
            <mxPoint x="387" y="452" as="sourcePoint" />
            <mxPoint x="437" y="402" as="targetPoint" />
          </mxGeometry>
        </mxCell>
        <mxCell id="amvjW9r1WKbjVWtIjcH6-24" value="&lt;span style=&quot;font-size: 20px;&quot;&gt;添加&amp;nbsp; &amp;nbsp;任务&lt;/span&gt;" style="rounded=0;whiteSpace=wrap;html=1;fontSize=22;fillColor=none;strokeColor=none;fontColor=#FF8000;" vertex="1" parent="1">
          <mxGeometry x="101.5" y="478" width="318" height="34" as="geometry" />
        </mxCell>
        <mxCell id="amvjW9r1WKbjVWtIjcH6-25" value="" style="endArrow=classic;html=1;rounded=0;dashed=1;fontSize=20;fontColor=#FF9933;strokeColor=#FF9933;strokeWidth=2;fillColor=#FF9933;entryX=0.67;entryY=0;entryDx=0;entryDy=0;exitX=0.25;exitY=1;exitDx=0;exitDy=0;entryPerimeter=0;" edge="1" parent="1" source="amvjW9r1WKbjVWtIjcH6-20" target="amvjW9r1WKbjVWtIjcH6-19">
          <mxGeometry width="50" height="50" relative="1" as="geometry">
            <mxPoint x="271" y="493" as="sourcePoint" />
            <mxPoint x="271.00800000000004" y="535" as="targetPoint" />
          </mxGeometry>
        </mxCell>
        <mxCell id="amvjW9r1WKbjVWtIjcH6-26" value="&lt;span style=&quot;font-size: 20px;&quot;&gt;信号量唤醒&lt;br&gt;子线程&lt;/span&gt;" style="rounded=0;whiteSpace=wrap;html=1;fontSize=22;fillColor=none;strokeColor=none;fontColor=#FF8000;" vertex="1" parent="1">
          <mxGeometry x="124" y="575" width="130.5" height="59" as="geometry" />
        </mxCell>
        <mxCell id="amvjW9r1WKbjVWtIjcH6-27" value="&lt;span style=&quot;font-size: 20px;&quot;&gt;上锁，获取并处理任务&lt;/span&gt;" style="rounded=0;whiteSpace=wrap;html=1;fontSize=22;fillColor=none;strokeColor=none;fontColor=#FF8000;" vertex="1" parent="1">
          <mxGeometry x="277" y="575" width="130.5" height="59" as="geometry" />
        </mxCell>
        <mxCell id="amvjW9r1WKbjVWtIjcH6-28" value="" style="endArrow=classic;html=1;rounded=0;dashed=1;fontSize=20;fontColor=#FF9933;strokeColor=#FF9933;strokeWidth=2;fillColor=#FF9933;entryX=0.75;entryY=1;entryDx=0;entryDy=0;exitX=0.351;exitY=-0.056;exitDx=0;exitDy=0;exitPerimeter=0;" edge="1" parent="1" source="amvjW9r1WKbjVWtIjcH6-19" target="amvjW9r1WKbjVWtIjcH6-20">
          <mxGeometry width="50" height="50" relative="1" as="geometry">
            <mxPoint x="225" y="572" as="sourcePoint" />
            <mxPoint x="234.75" y="651" as="targetPoint" />
          </mxGeometry>
        </mxCell>
        <mxCell id="amvjW9r1WKbjVWtIjcH6-30" value="异步线程" style="rounded=0;whiteSpace=wrap;html=1;dashed=1;comic=1;fontSize=20;fontColor=#CC0000;strokeColor=none;strokeWidth=2;fillColor=none;" vertex="1" parent="1">
          <mxGeometry x="2" y="434" width="91" height="40" as="geometry" />
        </mxCell>
        <mxCell id="amvjW9r1WKbjVWtIjcH6-31" value="同步线程" style="rounded=0;whiteSpace=wrap;html=1;dashed=1;comic=1;fontSize=20;fontColor=#CC0000;strokeColor=none;strokeWidth=2;fillColor=none;" vertex="1" parent="1">
          <mxGeometry x="3" y="621" width="91" height="40" as="geometry" />
        </mxCell>
        <mxCell id="amvjW9r1WKbjVWtIjcH6-32" value="处理HTTP请求" style="rounded=0;whiteSpace=wrap;html=1;fontStyle=1;fontSize=22;strokeColor=none;fillColor=none;flipH=1;" vertex="1" parent="1">
          <mxGeometry x="118.5" y="731" width="162" height="36" as="geometry" />
        </mxCell>
        <mxCell id="amvjW9r1WKbjVWtIjcH6-33" value="定时器处理非活动连接" style="rounded=0;whiteSpace=wrap;html=1;fontStyle=1;fontSize=22;strokeColor=none;fillColor=none;flipH=1;" vertex="1" parent="1">
          <mxGeometry x="85.75" y="814" width="231.5" height="36" as="geometry" />
        </mxCell>
        <mxCell id="amvjW9r1WKbjVWtIjcH6-34" value="日志输出" style="rounded=0;whiteSpace=wrap;html=1;fontStyle=1;fontSize=22;strokeColor=none;fillColor=none;flipH=1;" vertex="1" parent="1">
          <mxGeometry x="148" y="897" width="103" height="36" as="geometry" />
        </mxCell>
        <mxCell id="amvjW9r1WKbjVWtIjcH6-36" value="" style="shape=flexArrow;endArrow=classic;html=1;rounded=0;dashed=1;fontSize=20;fontColor=#FF9933;strokeColor=none;strokeWidth=2;fillColor=#FF9933;exitX=0.5;exitY=1;exitDx=0;exitDy=0;" edge="1" parent="1">
          <mxGeometry width="50" height="50" relative="1" as="geometry">
            <mxPoint x="206.5" y="678" as="sourcePoint" />
            <mxPoint x="207" y="719" as="targetPoint" />
          </mxGeometry>
        </mxCell>
        <mxCell id="amvjW9r1WKbjVWtIjcH6-37" value="" style="endArrow=classic;html=1;rounded=0;dashed=1;fontSize=20;fontColor=#FF8000;strokeColor=#FF8000;strokeWidth=2;fillColor=#FF9933;exitX=1;exitY=0.5;exitDx=0;exitDy=0;entryX=0;entryY=0.5;entryDx=0;entryDy=0;" edge="1" parent="1" source="amvjW9r1WKbjVWtIjcH6-32" target="amvjW9r1WKbjVWtIjcH6-38">
          <mxGeometry width="50" height="50" relative="1" as="geometry">
            <mxPoint x="412" y="797" as="sourcePoint" />
            <mxPoint x="347" y="742" as="targetPoint" />
          </mxGeometry>
        </mxCell>
        <mxCell id="amvjW9r1WKbjVWtIjcH6-38" value="GET&lt;br&gt;&lt;br&gt;POST" style="rounded=0;whiteSpace=wrap;html=1;fontStyle=1;fontSize=22;strokeColor=none;fillColor=none;flipH=1;" vertex="1" parent="1">
          <mxGeometry x="333" y="705" width="71" height="83" as="geometry" />
        </mxCell>
        <mxCell id="amvjW9r1WKbjVWtIjcH6-39" value="访问数据库" style="rounded=0;whiteSpace=wrap;html=1;fontStyle=0;fontSize=22;strokeColor=default;fillColor=none;flipH=1;" vertex="1" parent="1">
          <mxGeometry x="625" y="689" width="135" height="36" as="geometry" />
        </mxCell>
        <mxCell id="amvjW9r1WKbjVWtIjcH6-40" value="响应客户端" style="rounded=0;whiteSpace=wrap;html=1;fontStyle=0;fontSize=22;strokeColor=default;fillColor=none;flipH=1;" vertex="1" parent="1">
          <mxGeometry x="426" y="690" width="121" height="36" as="geometry" />
        </mxCell>
        <mxCell id="amvjW9r1WKbjVWtIjcH6-42" value="注册&lt;br&gt;登录&lt;br&gt;验证" style="rounded=0;whiteSpace=wrap;html=1;fontStyle=0;fontSize=22;strokeColor=default;fillColor=none;flipH=1;" vertex="1" parent="1">
          <mxGeometry x="453.5" y="737" width="66" height="82" as="geometry" />
        </mxCell>
        <mxCell id="amvjW9r1WKbjVWtIjcH6-43" value="CGI多线程&lt;br&gt;同步线程" style="rounded=0;whiteSpace=wrap;html=1;fontStyle=0;fontSize=22;strokeColor=default;fillColor=none;flipH=1;" vertex="1" parent="1">
          <mxGeometry x="547" y="746.5" width="133" height="61" as="geometry" />
        </mxCell>
        <mxCell id="amvjW9r1WKbjVWtIjcH6-44" value="数据库&lt;br&gt;连接池" style="rounded=0;whiteSpace=wrap;html=1;fontStyle=1;fontSize=22;strokeColor=default;fillColor=none;flipH=1;" vertex="1" parent="1">
          <mxGeometry x="708" y="749.5" width="111" height="57" as="geometry" />
        </mxCell>
        <mxCell id="amvjW9r1WKbjVWtIjcH6-45" value="" style="endArrow=classic;html=1;rounded=0;dashed=1;fontSize=21;fontColor=#FF8000;strokeColor=#FF8000;strokeWidth=2;fillColor=#FF9933;exitX=0;exitY=0.12;exitDx=0;exitDy=0;exitPerimeter=0;entryX=0;entryY=0.5;entryDx=0;entryDy=0;" edge="1" parent="1" source="amvjW9r1WKbjVWtIjcH6-38" target="amvjW9r1WKbjVWtIjcH6-40">
          <mxGeometry width="50" height="50" relative="1" as="geometry">
            <mxPoint x="551" y="607" as="sourcePoint" />
            <mxPoint x="601" y="557" as="targetPoint" />
          </mxGeometry>
        </mxCell>
        <mxCell id="amvjW9r1WKbjVWtIjcH6-48" value="" style="endArrow=classic;html=1;rounded=0;dashed=1;fontSize=21;fontColor=#FF8000;strokeColor=#0000FF;strokeWidth=2;fillColor=#FF9933;exitX=-0.028;exitY=0.892;exitDx=0;exitDy=0;entryX=0;entryY=0.5;entryDx=0;entryDy=0;exitPerimeter=0;" edge="1" parent="1" source="amvjW9r1WKbjVWtIjcH6-38" target="amvjW9r1WKbjVWtIjcH6-42">
          <mxGeometry width="50" height="50" relative="1" as="geometry">
            <mxPoint x="643" y="621" as="sourcePoint" />
            <mxPoint x="693" y="571" as="targetPoint" />
          </mxGeometry>
        </mxCell>
        <mxCell id="amvjW9r1WKbjVWtIjcH6-49" value="" style="endArrow=classic;html=1;rounded=0;dashed=1;fontSize=21;fontColor=#FF8000;strokeColor=#0000FF;strokeWidth=2;fillColor=#FF9933;exitX=0;exitY=0.5;exitDx=0;exitDy=0;entryX=1;entryY=0.5;entryDx=0;entryDy=0;" edge="1" parent="1" source="amvjW9r1WKbjVWtIjcH6-39" target="amvjW9r1WKbjVWtIjcH6-40">
          <mxGeometry width="50" height="50" relative="1" as="geometry">
            <mxPoint x="532" y="615" as="sourcePoint" />
            <mxPoint x="582" y="565" as="targetPoint" />
          </mxGeometry>
        </mxCell>
        <mxCell id="amvjW9r1WKbjVWtIjcH6-50" value="" style="endArrow=classic;html=1;rounded=0;dashed=1;fontSize=21;fontColor=#FF8000;strokeColor=#0000FF;strokeWidth=2;fillColor=#FF9933;exitX=1;exitY=0.5;exitDx=0;exitDy=0;entryX=0;entryY=0.5;entryDx=0;entryDy=0;" edge="1" parent="1" source="amvjW9r1WKbjVWtIjcH6-42" target="amvjW9r1WKbjVWtIjcH6-43">
          <mxGeometry width="50" height="50" relative="1" as="geometry">
            <mxPoint x="542" y="625" as="sourcePoint" />
            <mxPoint x="592" y="575" as="targetPoint" />
          </mxGeometry>
        </mxCell>
        <mxCell id="amvjW9r1WKbjVWtIjcH6-51" value="" style="endArrow=classic;html=1;rounded=0;dashed=1;fontSize=21;fontColor=#FF8000;strokeColor=#0000FF;strokeWidth=2;fillColor=#FF9933;exitX=1;exitY=0.5;exitDx=0;exitDy=0;entryX=0;entryY=0.5;entryDx=0;entryDy=0;" edge="1" parent="1" source="amvjW9r1WKbjVWtIjcH6-43" target="amvjW9r1WKbjVWtIjcH6-44">
          <mxGeometry width="50" height="50" relative="1" as="geometry">
            <mxPoint x="552" y="635" as="sourcePoint" />
            <mxPoint x="602" y="585" as="targetPoint" />
          </mxGeometry>
        </mxCell>
        <mxCell id="amvjW9r1WKbjVWtIjcH6-52" value="" style="edgeStyle=segmentEdgeStyle;endArrow=classic;html=1;rounded=0;dashed=1;fontSize=21;fontColor=#FF8000;strokeColor=#0000FF;strokeWidth=2;fillColor=#FF9933;exitX=0.75;exitY=0;exitDx=0;exitDy=0;entryX=1;entryY=0.5;entryDx=0;entryDy=0;" edge="1" parent="1" source="amvjW9r1WKbjVWtIjcH6-44" target="amvjW9r1WKbjVWtIjcH6-39">
          <mxGeometry width="50" height="50" relative="1" as="geometry">
            <mxPoint x="387" y="607" as="sourcePoint" />
            <mxPoint x="437" y="557" as="targetPoint" />
            <Array as="points">
              <mxPoint x="791" y="707" />
            </Array>
          </mxGeometry>
        </mxCell>
        <mxCell id="amvjW9r1WKbjVWtIjcH6-53" value="基于升序链表的定时器，超时断开连接" style="rounded=0;whiteSpace=wrap;html=1;fontStyle=0;fontSize=22;strokeColor=default;fillColor=none;flipH=1;" vertex="1" parent="1">
          <mxGeometry x="347" y="826" width="401" height="36" as="geometry" />
        </mxCell>
        <mxCell id="amvjW9r1WKbjVWtIjcH6-54" value="" style="endArrow=classic;html=1;rounded=0;dashed=1;fontSize=20;fontColor=#FF8000;strokeColor=#FF8000;strokeWidth=2;fillColor=#FF9933;exitX=1;exitY=0.5;exitDx=0;exitDy=0;entryX=0;entryY=0.5;entryDx=0;entryDy=0;" edge="1" parent="1" source="amvjW9r1WKbjVWtIjcH6-33" target="amvjW9r1WKbjVWtIjcH6-53">
          <mxGeometry width="50" height="50" relative="1" as="geometry">
            <mxPoint x="290.5" y="759" as="sourcePoint" />
            <mxPoint x="343" y="756.5" as="targetPoint" />
          </mxGeometry>
        </mxCell>
        <mxCell id="amvjW9r1WKbjVWtIjcH6-55" value="请求队列(使用循环数组自定义队列)" style="rounded=0;whiteSpace=wrap;html=1;fontStyle=0;fontSize=22;strokeColor=default;fillColor=none;flipH=1;" vertex="1" parent="1">
          <mxGeometry x="347" y="876" width="364" height="36" as="geometry" />
        </mxCell>
        <mxCell id="amvjW9r1WKbjVWtIjcH6-56" value="" style="endArrow=classic;html=1;rounded=0;dashed=1;fontSize=20;fontColor=#FF8000;strokeColor=#FF8000;strokeWidth=2;fillColor=#FF9933;exitX=1;exitY=0.25;exitDx=0;exitDy=0;entryX=0;entryY=0.5;entryDx=0;entryDy=0;" edge="1" parent="1" source="amvjW9r1WKbjVWtIjcH6-34" target="amvjW9r1WKbjVWtIjcH6-55">
          <mxGeometry width="50" height="50" relative="1" as="geometry">
            <mxPoint x="290.5" y="759" as="sourcePoint" />
            <mxPoint x="343" y="756.5" as="targetPoint" />
          </mxGeometry>
        </mxCell>
        <mxCell id="amvjW9r1WKbjVWtIjcH6-57" value="&lt;span style=&quot;font-size: 20px;&quot;&gt;异步记录&lt;/span&gt;" style="rounded=0;whiteSpace=wrap;html=1;fontSize=22;fillColor=none;strokeColor=none;fontColor=#FF8000;rotation=352;" vertex="1" parent="1">
          <mxGeometry x="243" y="871" width="93" height="34" as="geometry" />
        </mxCell>
        <mxCell id="amvjW9r1WKbjVWtIjcH6-58" value="log文件" style="rounded=0;whiteSpace=wrap;html=1;fontStyle=0;fontSize=22;strokeColor=default;fillColor=none;flipH=1;" vertex="1" parent="1">
          <mxGeometry x="730" y="912" width="85" height="36" as="geometry" />
        </mxCell>
        <mxCell id="amvjW9r1WKbjVWtIjcH6-59" value="" style="edgeStyle=segmentEdgeStyle;endArrow=classic;html=1;rounded=0;dashed=1;fontSize=21;fontColor=#FF8000;strokeColor=#0000FF;strokeWidth=2;fillColor=#FF9933;exitX=1;exitY=0.5;exitDx=0;exitDy=0;entryX=0.5;entryY=0;entryDx=0;entryDy=0;" edge="1" parent="1" source="amvjW9r1WKbjVWtIjcH6-55" target="amvjW9r1WKbjVWtIjcH6-58">
          <mxGeometry width="50" height="50" relative="1" as="geometry">
            <mxPoint x="387" y="767" as="sourcePoint" />
            <mxPoint x="437" y="717" as="targetPoint" />
          </mxGeometry>
        </mxCell>
        <mxCell id="amvjW9r1WKbjVWtIjcH6-61" value="&lt;span style=&quot;font-size: 20px;&quot;&gt;信号量唤醒&lt;/span&gt;" style="rounded=0;whiteSpace=wrap;html=1;fontSize=22;fillColor=none;strokeColor=none;fontColor=#0000FF;" vertex="1" parent="1">
          <mxGeometry x="705" y="864" width="120" height="34" as="geometry" />
        </mxCell>
        <mxCell id="amvjW9r1WKbjVWtIjcH6-63" value="&lt;span style=&quot;font-size: 20px;&quot;&gt;同步记录：工作线程完成&lt;/span&gt;" style="rounded=0;whiteSpace=wrap;html=1;fontSize=22;fillColor=none;strokeColor=none;fontColor=#FF8000;rotation=0;" vertex="1" parent="1">
          <mxGeometry x="375" y="922" width="247" height="34" as="geometry" />
        </mxCell>
        <mxCell id="amvjW9r1WKbjVWtIjcH6-65" value="" style="endArrow=classic;html=1;rounded=0;dashed=1;fontSize=20;fontColor=#FF8000;strokeColor=#FF8000;strokeWidth=2;fillColor=#FF9933;exitX=1;exitY=0.75;exitDx=0;exitDy=0;entryX=0;entryY=0.5;entryDx=0;entryDy=0;" edge="1" parent="1" source="amvjW9r1WKbjVWtIjcH6-34" target="amvjW9r1WKbjVWtIjcH6-58">
          <mxGeometry width="50" height="50" relative="1" as="geometry">
            <mxPoint x="290.5" y="759" as="sourcePoint" />
            <mxPoint x="343" y="756.5" as="targetPoint" />
          </mxGeometry>
        </mxCell>
        <mxCell id="amvjW9r1WKbjVWtIjcH6-67" value="" style="shape=flexArrow;endArrow=classic;html=1;rounded=0;dashed=1;fontSize=20;fontColor=#FF9933;strokeColor=none;strokeWidth=2;fillColor=#0000FF;" edge="1" parent="1">
          <mxGeometry width="50" height="50" relative="1" as="geometry">
            <mxPoint x="771" y="389" as="sourcePoint" />
            <mxPoint x="775" y="678" as="targetPoint" />
          </mxGeometry>
        </mxCell>
        <mxCell id="amvjW9r1WKbjVWtIjcH6-68" value="两种高效的事件处理模式" style="rounded=1;whiteSpace=wrap;html=1;dashed=1;fontSize=20;fontColor=#CC0000;strokeColor=#CC0000;strokeWidth=2;fillColor=none;comic=1;fontStyle=1" vertex="1" parent="1">
          <mxGeometry x="444" y="414" width="136" height="60" as="geometry" />
        </mxCell>
        <mxCell id="amvjW9r1WKbjVWtIjcH6-69" value="" style="shape=curlyBracket;whiteSpace=wrap;html=1;rounded=1;dashed=1;comic=1;fontSize=20;fontColor=#CC0000;strokeColor=#CC0000;strokeWidth=2;fillColor=none;" vertex="1" parent="1">
          <mxGeometry x="584.5" y="411" width="14.5" height="60" as="geometry" />
        </mxCell>
        <mxCell id="amvjW9r1WKbjVWtIjcH6-70" value="Reactor" style="rounded=0;whiteSpace=wrap;html=1;dashed=1;comic=1;fontSize=20;fontColor=#CC0000;strokeColor=none;strokeWidth=2;fillColor=none;" vertex="1" parent="1">
          <mxGeometry x="599" y="392" width="86.5" height="40" as="geometry" />
        </mxCell>
        <mxCell id="amvjW9r1WKbjVWtIjcH6-71" value="Proactor" style="rounded=0;whiteSpace=wrap;html=1;dashed=1;comic=1;fontSize=20;fontColor=#CC0000;strokeColor=none;strokeWidth=2;fillColor=none;" vertex="1" parent="1">
          <mxGeometry x="603" y="449" width="88.5" height="40" as="geometry" />
        </mxCell>
        <mxCell id="amvjW9r1WKbjVWtIjcH6-72" value="线程池技术" style="rounded=1;whiteSpace=wrap;html=1;dashed=1;fontSize=20;fontColor=#CC0000;strokeColor=#CC0000;strokeWidth=2;fillColor=none;comic=1;fontStyle=1" vertex="1" parent="1">
          <mxGeometry x="444" y="489" width="129" height="38" as="geometry" />
        </mxCell>
        <mxCell id="amvjW9r1WKbjVWtIjcH6-73" value="并发访问处理" style="rounded=1;whiteSpace=wrap;html=1;dashed=1;fontSize=20;fontColor=#CC0000;strokeColor=#CC0000;strokeWidth=2;fillColor=none;comic=1;fontStyle=1" vertex="1" parent="1">
          <mxGeometry x="444" y="543" width="129" height="38" as="geometry" />
        </mxCell>
      </root>
    </mxGraphModel>
  </diagram>
</mxfile>
